<svg width="132" height="130" viewBox="0 0 132 130" fill="none" xmlns="http://www.w3.org/2000/svg">
<path d="M50.9591 20.2834C50.2452 20.548 49.5312 20.6362 48.9957 20.548C48.371 20.4598 47.8355 20.2834 47.3893 19.9306C46.9431 19.6661 46.5861 19.2251 46.2291 18.8723C45.9614 18.4313 45.6937 17.9903 45.5152 17.5493L45.4259 17.2848C45.2474 16.7556 45.1582 16.3146 45.1582 15.7854C45.1582 15.2562 45.2474 14.7271 45.4259 14.2861C45.6044 13.7569 45.9614 13.3159 46.3184 12.9631C46.6754 12.6103 47.3001 12.2576 48.014 11.993C48.728 11.7284 49.442 11.6402 50.0667 11.7284C50.6914 11.8166 51.2268 11.993 51.6731 12.3458C52.1193 12.6985 52.4763 13.1395 52.744 13.7569L51.4053 14.1979C51.2269 13.8451 50.9591 13.4923 50.6914 13.3159C50.4236 13.1395 50.0667 12.9631 49.6204 12.9631C49.1742 12.9631 48.8172 12.9631 48.4603 13.1395C48.014 13.3159 47.6571 13.4923 47.3893 13.7569C47.1216 14.0215 46.8538 14.2861 46.7646 14.6389C46.6754 14.9916 46.5861 15.3444 46.5861 15.7854C46.5861 16.2264 46.6754 16.5792 46.7646 17.0202C46.9431 17.4611 47.1216 17.8139 47.3001 18.0785C47.5678 18.4313 47.8355 18.6959 48.1033 18.8723C48.4603 19.0487 48.8172 19.2251 49.1742 19.2251C49.5312 19.2251 49.9774 19.2251 50.4236 19.0487C51.0484 18.8723 51.5838 18.5195 51.9408 18.0785C52.2978 17.6375 52.387 17.1084 52.2978 16.491L53.6365 16.05C53.7257 16.6674 53.7257 17.1966 53.5472 17.7257C53.3687 18.2549 53.101 18.7841 52.6548 19.2251C52.2085 19.6661 51.6731 20.107 50.9591 20.2834Z" fill="#F5F5F5"/>
<path d="M55.6887 18.7855L54.2607 10.4951L55.5994 10.2305L57.0273 18.5209L55.6887 18.7855ZM56.8488 18.6091L56.6704 17.3744L60.4186 16.757L60.5971 17.9917L56.8488 18.6091Z" fill="#F5F5F5"/>
<path d="M61.6683 17.9903L61.1328 9.61163L62.5607 9.52344L63.0962 17.9021L61.6683 17.9903Z" fill="#F5F5F5"/>
<path d="M64.9707 17.8161L65.3277 9.4375L66.6663 9.5257L66.3094 17.9043L64.9707 17.8161ZM66.1309 17.8161L66.2201 16.5814L70.1469 16.7578L70.0577 17.9925L66.1309 17.8161ZM66.2201 14.2001L66.3094 12.9654L69.9684 13.1417L69.8792 14.3765L66.2201 14.2001ZM66.3986 10.6722L66.4879 9.4375L70.3254 9.61389L70.2361 10.8486L66.3986 10.6722Z" fill="#F5F5F5"/>
<path d="M71.3965 18.0812L73.0921 9.87891L75.3233 10.3199L77.7329 18.1694L78.0898 18.2576L77.8221 18.4339L79.3393 11.2019L80.6779 11.4664L78.9823 19.6687L76.7512 19.2277L74.4308 11.3782L74.0738 11.29L74.3416 11.1137L72.8244 18.3457L71.3965 18.0812Z" fill="#F5F5F5"/>
<path d="M82.1055 20.8174L84.8721 13.9381L86.2107 14.4672L83.4441 21.3465L82.1055 20.8174ZM82.3732 13.2325L82.8194 12.0859L88.7988 14.379L88.3526 15.5256L82.3732 13.2325Z" fill="#F5F5F5"/>
<path d="M88.6201 23.6377L93.2608 16.582L94.421 17.2876L89.7803 24.3433L88.6201 23.6377ZM90.9405 21.6974L91.5652 20.7273L93.4393 21.8738C93.7071 22.0502 93.9748 22.1384 94.2425 22.1384C94.5103 22.1384 94.778 22.1384 95.0457 21.962C95.3135 21.8738 95.492 21.6092 95.6705 21.3446C95.8489 21.08 95.9382 20.8155 95.9382 20.5509C95.9382 20.2863 95.9382 20.0217 95.7597 19.7571C95.6705 19.4925 95.4027 19.3161 95.135 19.1397L93.2608 17.9932L93.8856 17.023L95.5812 18.0814C96.1167 18.4342 96.5629 18.7869 96.8306 19.2279C97.0984 19.6689 97.2769 20.1099 97.2769 20.5509C97.2769 20.9918 97.0984 21.521 96.8306 22.0502L96.7414 22.2266C96.3844 22.7558 96.0274 23.1086 95.5812 23.2849C95.135 23.4613 94.6888 23.5495 94.1533 23.4613C93.6178 23.3731 93.0824 23.1086 92.5469 22.844L90.9405 21.6974ZM92.9931 26.46L92.7254 21.962L94.064 22.844L94.421 27.4302L92.9931 26.46Z" fill="#F5F5F5"/>
<path d="M95.0459 27.9572L100.668 21.6953L101.739 22.5773L96.1168 28.8392L95.0459 27.9572ZM95.8491 28.6628L96.6523 27.7809L99.5974 30.3385L98.7942 31.2205L95.8491 28.6628ZM98.348 25.9287L99.1512 25.0468L101.918 27.4281L101.115 28.31L98.348 25.9287ZM100.668 23.2828L101.472 22.4009L104.417 24.9586L103.613 25.8405L100.668 23.2828Z" fill="#F5F5F5"/>
<path d="M101.025 33.692L105.666 26.1953L106.559 27.2537L102.364 33.8684L102.275 33.3392L103.167 34.3094L102.632 34.0448L109.861 30.9579L110.753 32.0163L102.543 35.4559L101.025 33.692Z" fill="#F5F5F5"/>
<path d="M104.685 38.3675L111.735 33.7812L112.538 34.9278L105.488 39.514L104.685 38.3675Z" fill="#F5F5F5"/>
<path d="M106.559 41.0994L114.055 37.2188L114.68 38.4535L107.183 42.3341L106.559 41.0994ZM107.005 42.1577L108.076 41.6286L109.861 45.0682L108.79 45.5974L107.005 42.1577ZM110.307 40.3938L111.378 39.8646L113.073 43.0397L112.003 43.5689L110.307 40.3938ZM113.52 38.8063L114.591 38.2771L116.376 41.6286L115.305 42.1577L113.52 38.8063Z" fill="#F5F5F5"/>
<path d="M109.949 47.9785L117.446 43.4805L117.892 44.8034L111.199 48.6841L111.288 48.1549L111.645 49.3896L111.199 48.9486L118.517 48.3313L118.874 49.4778L110.574 50.0952L109.949 47.9785ZM111.377 52.8293L118.606 48.6841L118.963 49.9188L112.537 53.5348L112.627 52.9175L112.984 54.1522L112.537 53.7112L120.212 53.1821L120.569 54.505L111.913 55.0342L111.377 52.8293Z" fill="#F5F5F5"/>
<path d="M40.7853 20.2856C40.5176 19.8446 39.9821 19.7564 39.5359 19.9328C38.5542 20.462 37.6617 21.0794 36.6801 21.6086C36.2338 21.8731 36.1446 22.4905 36.4123 22.8433C36.6801 23.1961 37.2155 23.2843 37.6617 23.0197C38.5542 22.4023 39.4466 21.8732 40.3391 21.344C40.8746 21.2558 40.9638 20.6384 40.7853 20.2856Z" fill="#F5F5F5"/>
<path d="M116.822 65.1791C117.268 65.1791 117.714 64.7381 117.714 64.2971C117.714 63.2387 117.625 62.0922 117.536 61.0338C117.536 60.5047 117 60.1519 116.554 60.2401C116.108 60.3283 115.751 60.681 115.751 61.2102C115.84 62.2686 115.84 63.3269 115.84 64.3853C115.929 64.8263 116.286 65.1791 116.822 65.1791Z" fill="#F5F5F5"/>
<path d="M39.3572 108.391C39.0895 108.832 39.268 109.361 39.7142 109.626C40.6959 110.155 41.6776 110.684 42.6593 111.125C43.1055 111.302 43.641 111.125 43.8195 110.684C43.998 110.243 43.8195 109.714 43.3733 109.538C42.3916 109.097 41.4991 108.567 40.5174 108.038C40.1604 107.862 39.625 107.95 39.3572 108.391Z" fill="#F5F5F5"/>
<path d="M111.556 74.7005C111.735 73.9949 112.003 73.3775 112.36 72.8484C112.716 72.4074 113.163 72.0546 113.698 71.79C114.234 71.5254 114.68 71.4372 115.215 71.349C115.751 71.2608 116.197 71.349 116.733 71.4372L117 71.5254C117.536 71.6136 117.982 71.79 118.428 72.0546C118.874 72.3192 119.321 72.672 119.678 73.0248C120.035 73.4657 120.213 73.9067 120.392 74.5241C120.57 75.0533 120.481 75.7588 120.392 76.4644C120.213 77.17 119.945 77.7874 119.588 78.3165C119.231 78.7575 118.785 79.1103 118.25 79.3749C117.714 79.6395 117.089 79.6395 116.465 79.5513L116.733 78.2283C117.179 78.2283 117.536 78.2283 117.893 78.0519C118.25 77.8756 118.517 77.6992 118.696 77.3464C118.874 76.9936 119.053 76.6408 119.142 76.1998C119.231 75.7588 119.231 75.3179 119.142 74.9651C119.053 74.6123 118.874 74.2595 118.696 73.9949C118.428 73.7303 118.16 73.4657 117.803 73.2893C117.446 73.113 117.089 72.9366 116.643 72.8484C116.197 72.7602 115.84 72.7602 115.394 72.7602C115.037 72.7602 114.591 72.9366 114.323 73.113C113.966 73.2894 113.698 73.5539 113.43 73.8185C113.163 74.1713 113.073 74.5241 112.895 74.9651C112.716 75.5825 112.806 76.1998 113.073 76.729C113.341 77.2582 113.698 77.611 114.323 77.8756L114.055 79.2867C113.52 79.1103 112.984 78.7575 112.627 78.4047C112.27 78.052 111.913 77.5228 111.735 76.9054C111.467 76.1998 111.467 75.4943 111.556 74.7005Z" fill="#F5F5F5"/>
<path d="M110.129 80.6091L111.289 81.0501L109.95 84.4898L108.79 84.0488L110.129 80.6091ZM110.486 79.5508L118.428 82.5495L117.893 83.8724L109.95 80.8737L110.486 79.5508Z" fill="#F5F5F5"/>
<path d="M108.255 85.0195L115.84 88.7238L115.216 89.9585L107.63 86.2543L108.255 85.0195Z" fill="#F5F5F5"/>
<path d="M106.113 88.8999L107.094 89.5172L104.952 92.8687L103.971 92.2513L106.113 88.8999ZM106.737 87.9297L113.877 92.4277L113.163 93.5743L106.023 89.0762L106.737 87.9297ZM109.236 90.8402L110.218 91.4575L108.254 94.4562L107.273 93.8388L109.236 90.8402ZM112.27 92.7805L113.252 93.3979L111.2 96.6611L110.218 96.0437L112.27 92.7805Z" fill="#F5F5F5"/>
<path d="M103.256 93.3125L109.503 98.9571L107.986 100.633L99.9542 98.6925L99.6865 98.9571V98.6043L105.22 103.543L104.327 104.513L98.0801 98.8689L99.5973 97.1931L107.629 99.1335L107.897 98.8689V99.1335L102.364 94.1945L103.256 93.3125Z" fill="#F5F5F5"/>
<path d="M95.4918 101.07L100.133 106.891L99.0616 107.773L94.4209 101.952L95.4918 101.07ZM101.917 105.127L102.721 106.098L97.723 110.066L96.9198 109.096L101.917 105.127Z" fill="#F5F5F5"/>
<path d="M85.0504 107.51L89.1556 109.539L87.7277 110.244L83.5332 108.216L85.0504 107.51ZM90.1373 108.128L90.6728 109.186L88.7094 110.156C88.4417 110.332 88.1739 110.509 87.9954 110.685C87.817 110.95 87.7277 111.126 87.7277 111.391C87.7277 111.655 87.817 111.92 87.9062 112.185C88.0847 112.449 88.2632 112.626 88.4417 112.802C88.6202 112.978 88.8879 113.067 89.1556 113.067C89.4234 113.067 89.6911 112.978 90.0481 112.89L92.0115 111.92L92.5469 112.978L90.762 113.86C90.2266 114.125 89.6018 114.301 89.1556 114.39C88.6201 114.39 88.1739 114.301 87.7277 114.125C87.2815 113.86 86.9245 113.508 86.6568 112.978L86.5675 112.802C86.2998 112.273 86.2105 111.744 86.2105 111.303C86.2998 110.862 86.4783 110.421 86.8353 110.068C87.1922 109.715 87.6385 109.362 88.1739 109.01L90.1373 108.128ZM89.6911 105.129L93.6179 112.626L92.3684 113.243L88.5309 105.746L89.6911 105.129Z" fill="#F5F5F5"/>
<path d="M81.5696 108.833L81.9266 109.98L78.1783 111.215L77.8213 110.068L81.5696 108.833ZM82.7298 112.273L83.0867 113.419L79.6062 114.566L79.2492 113.419L82.7298 112.273ZM83.8899 115.624L84.2469 116.771L80.5879 118.006L80.2309 116.859L83.8899 115.624ZM82.7298 108.48L85.4071 116.418L84.0684 116.859L81.3911 108.921L82.7298 108.48Z" fill="#F5F5F5"/>
<path d="M74.6085 110.773L78.803 118.535L77.3751 118.799L73.716 111.832L74.2515 112.008L72.9128 112.273L73.4483 111.92L72.4666 119.593L71.1279 119.858L72.2881 111.126L74.6085 110.773Z" fill="#F5F5F5"/>
<path d="M68.7189 111.477L69.1652 119.855L67.7372 119.943L67.291 111.565L68.7189 111.477Z" fill="#F5F5F5"/>
<path d="M63.8994 118.799L63.8102 119.946L59.9727 119.769L60.0619 118.535L63.8994 118.799ZM64.2564 111.567L64.1672 112.802L60.2404 112.625L60.3296 111.391L64.2564 111.567ZM64.0779 115.271L63.9887 116.506L60.3296 116.33L60.4189 115.095L64.0779 115.271ZM65.4166 111.655L64.9704 120.034L63.6317 119.946L64.0779 111.567L65.4166 111.655Z" fill="#F5F5F5"/>
<path d="M52.7438 109.889V118.179L51.4944 117.914L51.5837 110.594L52.0299 110.947L50.7804 110.682L51.3159 110.506L47.9246 117.385L46.5859 117.032L50.5127 109.359L52.7438 109.889ZM57.6523 111.123L57.8308 119.767L56.4029 119.414V111.741L56.8491 112.093L55.5997 111.829L56.2244 111.652L53.1008 118.267L51.9406 118.003L55.5997 110.594L57.6523 111.123Z" fill="#F5F5F5"/>
<path d="M33.7347 99.3078C34.2702 99.837 34.7164 100.366 34.9842 100.895C35.2519 101.425 35.3411 102.042 35.2519 102.571C35.1627 103.1 35.0734 103.629 34.8949 104.07C34.7164 104.511 34.4487 104.952 34.0917 105.305L33.9132 105.482C33.5562 105.834 33.1993 106.187 32.6638 106.452C32.2176 106.716 31.6821 106.893 31.1466 106.981C30.6112 107.069 30.0757 107.069 29.5402 106.893C29.0048 106.716 28.38 106.364 27.8446 105.923C27.3091 105.393 26.8629 104.864 26.5951 104.335C26.3274 103.806 26.2382 103.188 26.3274 102.659C26.4167 102.13 26.5951 101.513 27.0414 100.984L28.1123 101.866C27.8446 102.218 27.7553 102.571 27.7553 102.924C27.7553 103.277 27.8446 103.629 27.9338 103.982C28.1123 104.335 28.38 104.6 28.6478 104.952C29.0048 105.217 29.3617 105.482 29.7187 105.57C30.0757 105.658 30.4327 105.746 30.7897 105.658C31.1466 105.57 31.5036 105.482 31.8606 105.305C32.2176 105.129 32.5746 104.864 32.8423 104.511C33.11 104.159 33.3778 103.894 33.5563 103.453C33.7347 103.1 33.824 102.747 33.824 102.307C33.824 101.954 33.7347 101.601 33.6455 101.248C33.5562 100.895 33.1993 100.543 32.8423 100.278C32.3068 99.837 31.7713 99.5724 31.2359 99.4842C30.7004 99.396 30.1649 99.5724 29.6295 100.013L28.5585 99.0432C29.0048 98.6905 29.5402 98.4259 30.0757 98.2495C30.6112 98.0731 31.2359 98.0731 31.8606 98.2495C32.5745 98.4259 33.1993 98.7787 33.7347 99.3078Z" fill="#F5F5F5"/>
<path d="M30.0753 95.9565L23.5604 101.248L22.668 100.19L29.1828 94.8981L30.0753 95.9565ZM29.3613 95.0745L28.3796 95.8683L25.97 92.9578L26.9517 92.1641L29.3613 95.0745Z" fill="#F5F5F5"/>
<path d="M26.416 91.2794L19.3657 95.9538L18.5625 94.8072L25.6128 90.1328L26.416 91.2794Z" fill="#F5F5F5"/>
<path d="M17.5814 90.9278L16.5105 91.457L14.7256 88.1056L15.7965 87.5764L17.5814 90.9278ZM24.5425 88.6347L17.046 92.5154L16.4212 91.2806L23.9178 87.4L24.5425 88.6347ZM20.7942 89.2521L19.7233 89.7813L18.0276 86.6062L19.0986 86.077L20.7942 89.2521ZM24.007 87.5764L22.9361 88.1056L21.062 84.6659L22.1329 84.1367L24.007 87.5764Z" fill="#F5F5F5"/>
<path d="M21.5969 82.9916L13.5649 85.6374L12.8509 83.5207L18.5626 77.6116L18.4733 77.2588L18.7411 77.4352L11.6015 79.7283L11.1553 78.4935L19.1873 75.8477L19.9013 77.9644L14.1896 83.8735L14.2788 84.2263L14.0111 84.0499L21.1507 81.7568L21.5969 82.9916Z" fill="#F5F5F5"/>
<path d="M11.8698 75.9338L10.6204 76.1102L9.63867 69.8483L10.8881 69.6719L11.8698 75.9338ZM18.6524 72.406L11.2451 73.4643L11.0666 72.1414L18.4739 71.083L18.6524 72.406Z" fill="#F5F5F5"/>
<path d="M17.9382 65.4395L9.45996 65.0868L9.5492 63.6756L18.0275 64.0284L17.9382 65.4395ZM15.0824 64.3812L13.9222 64.293L14.0114 62.0881C14.0114 61.7353 14.0114 61.4707 13.833 61.2061C13.7437 60.9415 13.5652 60.7652 13.2975 60.677C13.0298 60.5888 12.762 60.5006 12.4943 60.4124C12.2266 60.4124 11.8696 60.4124 11.6911 60.5888C11.4233 60.6769 11.2449 60.8533 11.0664 61.1179C10.8879 61.3825 10.7986 61.6471 10.7986 61.9999L10.7094 64.2048L9.45996 64.1166L9.5492 62.0881C9.5492 61.4707 9.7277 60.8533 9.90619 60.4124C10.0847 59.9714 10.4417 59.6186 10.8879 59.354C11.3341 59.0894 11.7803 59.0012 12.405 59.0012H12.5835C13.2082 59.0012 13.7437 59.1776 14.1007 59.4422C14.4577 59.7068 14.7254 60.1478 14.9039 60.5888C15.0824 61.0297 15.1716 61.6471 15.0824 62.2645V64.3812ZM18.206 60.3242L14.3684 62.7937L14.4577 61.2061L18.2952 58.6484L18.206 60.3242Z" fill="#F5F5F5"/>
<path d="M18.4736 57.7687L10.1738 56.093L10.4416 54.77L18.7413 56.4458L18.4736 57.7687ZM11.6017 55.211L10.4416 54.9464L11.1555 51.2422L12.3157 51.5068L11.6017 55.211ZM15.0823 55.9166L13.9221 55.652L14.6361 52.1242L15.7962 52.3887L15.0823 55.9166ZM18.7413 56.6222L17.5811 56.3576L18.3844 52.4769L19.5445 52.7415L18.7413 56.6222Z" fill="#F5F5F5"/>
<path d="M20.526 49.7411L11.6016 49.4765L12.0478 48.1536L19.9906 48.4182L19.5443 48.771L19.9906 47.5362L20.0798 48.1536L13.7434 43.4792L14.1897 42.1562L21.24 47.448L20.526 49.7411Z" fill="#F5F5F5"/>
<path d="M22.7577 44.2733L15.1719 40.4808L15.7966 39.2461L23.3824 43.0385L22.7577 44.2733Z" fill="#F5F5F5"/>
<path d="M24.2744 41.362L17.1348 36.864L17.8487 35.7174L24.9883 40.2154L24.2744 41.362ZM18.8304 36.5112L17.8487 35.8938L19.9014 32.7188L20.883 33.3361L18.8304 36.5112ZM21.7755 38.4515L20.7938 37.8341L22.7572 34.8355L23.7389 35.4528L21.7755 38.4515ZM24.8991 40.3918L23.9174 39.7745L26.0592 36.5112L27.0409 37.1286L24.8991 40.3918Z" fill="#F5F5F5"/>
<path d="M28.6477 35.0122L20.9727 30.8669L21.9544 29.8086L28.737 33.601L28.2015 33.7774L29.0939 32.8954L28.9154 33.5128L24.7209 27.5155L25.5241 26.6335L30.1649 33.4246L28.6477 35.0122ZM32.1283 31.3079L24.8994 27.1627L25.7919 26.2807L32.2175 29.985L31.682 30.1614L32.5745 29.2794L32.396 29.8086L28.023 23.4584L29.0047 22.4883L33.7347 29.7204L32.1283 31.3079Z" fill="#F5F5F5"/>
</svg>
