<svg width="134" height="134" viewBox="0 0 134 134" fill="none" xmlns="http://www.w3.org/2000/svg">
<circle cx="67" cy="67" r="64.5" fill="#FF6B45" stroke="white" stroke-width="5"/>
<path d="M39.6372 53.0564L37.5894 53.6051L33.9038 39.8503L35.9516 39.3016L39.6372 53.0564ZM45.5821 51.6705C42.4139 52.5194 40.1176 50.9813 39.2686 47.8131C38.4456 44.7415 39.5428 42.1906 42.6917 41.3468C45.8406 40.5031 48.0766 42.2023 48.8427 45.0614C48.8944 45.2546 48.9217 45.4336 48.9541 45.632L41.4199 47.6508C42.1094 49.9921 43.5042 50.7158 45.2042 50.2602C46.6145 49.8824 47.3064 48.9101 47.3101 47.6875L49.184 47.1854C49.2832 49.3329 48.1708 50.9769 45.5821 51.6705ZM43.0695 42.7571C41.5241 43.1712 40.768 44.3676 41.0576 46.2985L46.5827 44.818C45.8681 43.0011 44.615 42.343 43.0695 42.7571ZM54.4226 49.3017C52.1044 49.9229 50.5381 49.1002 50.0412 47.2456C49.6426 45.7581 50.2348 44.3364 52.6506 43.4613L54.5411 42.7891C55.6884 42.3575 55.9637 41.9938 55.7929 41.3563C55.4875 40.2165 54.6495 39.7164 53.2006 40.1046C51.8483 40.4669 51.2695 41.2432 51.5042 42.5055L49.495 43.0438C48.9567 41.0347 49.8514 39.4284 52.7879 38.6416C55.705 37.8599 57.3023 38.7985 57.8406 40.8076L59.0002 45.135C59.3625 46.4873 59.7113 47.3255 59.9925 47.6022L58.1573 48.0939C57.7446 47.7904 57.52 47.4158 57.2716 46.4885C57.0723 47.9084 56.142 48.841 54.4226 49.3017ZM54.605 47.7413C56.363 47.2703 56.942 45.645 56.502 44.0029L56.2743 43.1529C56.1343 43.4803 55.6347 43.7798 54.8775 44.0448L53.6336 44.5024C52.2351 45.0013 51.8353 45.7503 52.0527 46.5617C52.327 47.5856 53.1368 48.1347 54.605 47.7413ZM63.0843 46.7738L61.0365 47.3225L58.3655 37.3541L60.3166 36.8313L60.9326 39.1302C60.9832 37.2324 61.6958 36.3375 63.1447 35.9493C63.4152 35.8768 63.8171 35.8312 64.0838 35.8219L64.5652 37.6185L63.5696 37.8439C61.9468 38.2787 61.2208 39.8191 61.816 42.0407L63.0843 46.7738ZM76.0317 43.3045L73.984 43.8532L72.3172 37.6326C71.9134 36.1258 71.1654 35.498 69.7552 35.8759C68.2677 36.2744 67.602 37.6537 68.0885 39.4697L69.5793 45.0334L67.5316 45.5821L64.8606 35.6137L66.8117 35.0909L67.2776 36.8296C67.508 35.5255 68.2668 34.494 69.9282 34.0488C72.2078 33.438 73.6195 34.3021 74.2666 36.7169L76.0317 43.3045ZM56.6518 71.2734L54.6813 71.8014L52.999 65.5229C52.5953 64.016 51.9208 63.4306 50.781 63.7361C49.5832 64.057 48.9406 65.368 49.4272 67.1839L50.9335 72.8056L48.9631 73.3336L47.2807 67.0551C46.877 65.5482 46.2025 64.9629 45.082 65.2631C43.8843 65.584 43.261 66.8898 43.7476 68.7058L45.2539 74.3275L43.2834 74.8555L40.6124 64.8871L42.5636 64.3643L43.0294 66.1029C43.1825 64.8196 43.9027 63.7984 45.2744 63.4309C46.7619 63.0323 47.8317 63.4703 48.5559 64.705C48.7166 63.2953 49.5631 62.2817 50.9347 61.9142C52.9438 61.3759 54.2396 62.271 54.8867 64.6858L56.6518 71.2734ZM62.5956 69.8878C59.4273 70.7368 57.131 69.1987 56.2821 66.0304C55.4332 62.8622 56.6528 60.382 59.821 59.5331C62.9893 58.6842 65.2856 60.2222 66.1345 63.3905C66.9835 66.5587 65.7638 69.0389 62.5956 69.8878ZM62.1763 68.323C64.0116 67.8313 64.7338 66.354 64.0868 63.9392C63.4449 61.5437 62.0756 60.6061 60.2403 61.0979C58.4051 61.5897 57.688 63.0862 58.3299 65.4817C58.9769 67.8966 60.341 68.8148 62.1763 68.323ZM70.4898 67.5655L68.442 68.1142L65.771 58.1459L67.7222 57.6231L68.3382 59.922C68.3887 58.0242 69.1014 57.1293 70.5502 56.741C70.8207 56.6686 71.2226 56.623 71.4893 56.6137L71.9707 58.4103L70.9751 58.6356C69.3523 59.0705 68.6263 60.6109 69.2216 62.8325L70.4898 67.5655ZM79.0948 65.4669C75.9266 66.3158 73.6302 64.7777 72.7813 61.6095C71.9583 58.5378 73.0554 55.987 76.2044 55.1432C79.3533 54.2995 81.5892 55.9986 82.3553 58.8578C82.4071 59.051 82.4344 59.23 82.4668 59.4284L74.9326 61.4472C75.6221 63.7885 77.0169 64.5121 78.7169 64.0566C80.1272 63.6787 80.8191 62.7065 80.8228 61.4839L82.6967 60.9818C82.7959 63.1293 81.6835 64.7732 79.0948 65.4669ZM76.5822 56.5535C75.0367 56.9676 74.2807 58.164 74.5703 60.0949L80.0954 58.6144C79.3807 56.7975 78.1277 56.1393 76.5822 56.5535Z" fill="white"/>
<path d="M52.9267 105.4C54.1633 91.7737 64.525 63.9506 96.0793 61.6715" stroke="white" stroke-width="2" stroke-linecap="round"/>
</svg>
