<svg width="466" height="196" viewBox="0 0 466 196" fill="none" xmlns="http://www.w3.org/2000/svg">
<g clip-path="url(#clip0_2299_2893)">
<g opacity="0.07">
<path d="M300.956 -26.2734L433.915 1.05" stroke="#1D1D1D" stroke-width="1.5" stroke-miterlimit="10"/>
<path d="M298.81 -18.3057L427.607 24.4676" stroke="#1D1D1D" stroke-width="1.5" stroke-miterlimit="10"/>
<path d="M295.733 -10.6465L418.569 46.9789" stroke="#1D1D1D" stroke-width="1.5" stroke-miterlimit="10"/>
<path d="M291.775 -3.40625L406.93 68.2696" stroke="#1D1D1D" stroke-width="1.5" stroke-miterlimit="10"/>
<path d="M286.986 3.32227L392.853 88.0406" stroke="#1D1D1D" stroke-width="1.5" stroke-miterlimit="10"/>
<path d="M281.433 9.4375L376.535 106.021" stroke="#1D1D1D" stroke-width="1.5" stroke-miterlimit="10"/>
<path d="M275.197 14.8584L358.201 121.954" stroke="#1D1D1D" stroke-width="1.5" stroke-miterlimit="10"/>
<path d="M268.361 19.5068L338.111 135.618" stroke="#1D1D1D" stroke-width="1.5" stroke-miterlimit="10"/>
<path d="M261.022 23.3184L316.544 146.824" stroke="#1D1D1D" stroke-width="1.5" stroke-miterlimit="10"/>
<path d="M253.286 26.2393L293.8 155.412" stroke="#1D1D1D" stroke-width="1.5" stroke-miterlimit="10"/>
<path d="M245.256 28.2344L270.198 161.27" stroke="#1D1D1D" stroke-width="1.5" stroke-miterlimit="10"/>
<path d="M237.046 29.2705L246.068 164.311" stroke="#1D1D1D" stroke-width="1.5" stroke-miterlimit="10"/>
<path d="M228.772 29.3262L221.748 164.485" stroke="#1D1D1D" stroke-width="1.5" stroke-miterlimit="10"/>
<path d="M220.549 28.417L197.576 161.804" stroke="#1D1D1D" stroke-width="1.5" stroke-miterlimit="10"/>
<path d="M212.489 26.5439L173.89 156.298" stroke="#1D1D1D" stroke-width="1.5" stroke-miterlimit="10"/>
<path d="M204.71 23.7344L151.022 148.041" stroke="#1D1D1D" stroke-width="1.5" stroke-miterlimit="10"/>
<path d="M197.318 20.0283L129.292 137.15" stroke="#1D1D1D" stroke-width="1.5" stroke-miterlimit="10"/>
<path d="M190.415 15.4844L109.002 123.786" stroke="#1D1D1D" stroke-width="1.5" stroke-miterlimit="10"/>
<path d="M184.098 10.1494L90.4343 108.119" stroke="#1D1D1D" stroke-width="1.5" stroke-miterlimit="10"/>
<path d="M178.456 4.11914L73.8506 90.3843" stroke="#1D1D1D" stroke-width="1.5" stroke-miterlimit="10"/>
<path d="M173.568 -2.54199L59.4854 70.8175" stroke="#1D1D1D" stroke-width="1.5" stroke-miterlimit="10"/>
<path d="M169.502 -9.72461L47.5325 49.7023" stroke="#1D1D1D" stroke-width="1.5" stroke-miterlimit="10"/>
<path d="M166.315 -17.334L38.1636 27.3267" stroke="#1D1D1D" stroke-width="1.5" stroke-miterlimit="10"/>
<path d="M164.051 -25.2676L31.5078 4.00753" stroke="#1D1D1D" stroke-width="1.5" stroke-miterlimit="10"/>
</g>
</g>
<defs>
<clipPath id="clip0_2299_2893">
<rect width="466" height="470" fill="white" transform="translate(0 -274)"/>
</clipPath>
</defs>
</svg>
