<svg width="241" height="71" viewBox="0 0 241 71" fill="none" xmlns="http://www.w3.org/2000/svg">
<path d="M174.223 41.3572C174.223 37.8992 174.745 34.7634 175.79 31.9497C176.847 29.136 178.334 26.7299 180.251 24.7313C182.168 22.7197 184.462 21.1682 187.133 20.0769C189.803 18.9856 192.758 18.4399 195.997 18.4399C199.236 18.4399 202.191 18.9856 204.861 20.0769C207.532 21.1682 209.826 22.7197 211.743 24.7313C213.659 26.7299 215.14 29.136 216.185 31.9497C217.242 34.7634 217.771 37.8992 217.771 41.3572C217.771 43.6581 217.533 45.821 217.057 47.8458C216.581 49.8706 215.894 51.7376 214.995 53.4469C214.109 55.143 213.018 56.6616 211.723 58.0027C210.44 59.3438 208.993 60.4811 207.38 61.4147C205.767 62.3482 204.002 63.0582 202.085 63.5447C200.181 64.0443 198.152 64.2941 195.997 64.2941C193.842 64.2941 191.806 64.0443 189.889 63.5447C187.972 63.0582 186.207 62.3482 184.594 61.4147C182.981 60.4811 181.534 59.3438 180.251 58.0027C178.969 56.6616 177.878 55.143 176.979 53.4469C176.094 51.7376 175.413 49.8706 174.937 47.8458C174.461 45.821 174.223 43.6581 174.223 41.3572ZM184.218 41.3572C184.218 43.5792 184.489 45.5711 185.031 47.333C185.573 49.0817 186.346 50.5674 187.351 51.7902C188.369 52.9999 189.605 53.9268 191.059 54.5711C192.527 55.2153 194.179 55.5374 196.017 55.5374C197.854 55.5374 199.5 55.2153 200.955 54.5711C202.409 53.9268 203.638 52.9999 204.643 51.7902C205.661 50.5674 206.434 49.0817 206.963 47.333C207.505 45.5711 207.776 43.5792 207.776 41.3572C207.776 39.1351 207.505 37.1498 206.963 35.4011C206.434 33.6392 205.661 32.1535 204.643 30.9438C203.638 29.7342 202.409 28.8073 200.955 28.163C199.5 27.5187 197.854 27.1966 196.017 27.1966C194.179 27.1966 192.527 27.5187 191.059 28.163C189.605 28.8073 188.369 29.7408 187.351 30.9636C186.346 32.1732 185.573 33.6524 185.031 35.4011C184.489 37.1498 184.218 39.1351 184.218 41.3572Z" fill="white"/>
<path d="M168.848 14.8308H158.575V4.73303H168.848V14.8308ZM168.689 63.1108H158.734V19.6233H168.689V63.1108Z" fill="white"/>
<path d="M154.331 19.6235L139.121 63.111H124.664L109.613 19.6235H120.024L132.021 56.9183L144.158 19.6235H154.331Z" fill="white"/>
<path d="M88.1671 63.111H78.2122V19.6235H88.1671V34.0996C88.6166 31.8513 89.2711 29.8331 90.1304 28.0449C91.0029 26.2568 92.087 24.7382 93.3826 23.4891C94.6914 22.24 96.2184 21.2868 97.9635 20.6294C99.7218 19.9588 101.711 19.6235 103.933 19.6235H106.233V28.9719H102.961C100.145 28.9719 97.7916 29.248 95.9011 29.8002C94.0106 30.3393 92.4902 31.161 91.3401 32.2655C90.1899 33.3699 89.3702 34.7636 88.8811 36.4466C88.4051 38.1296 88.1671 40.1149 88.1671 42.4027V63.111Z" fill="white"/>
<path d="M34.9417 48.8731C35.2263 48.5886 35.6534 48.9443 35.4399 49.2999C29.3905 58.405 20.4943 63.3844 12.5946 60.9658C1.84802 57.6937 -2.92031 42.1866 1.84802 26.3238C6.61636 10.4609 23.1988 -3.33898 38.5001 0.715635C39.5677 1.00017 40.564 1.49811 41.3469 2.06717C41.5604 2.20944 41.4892 2.63624 41.2046 2.63624C33.5183 4.34345 26.8284 9.82074 21.4195 18.9259C18.2881 24.2609 16.0819 30.165 15.299 36.3536C14.445 42.7556 14.872 50.5092 20.9925 53.2834C25.2627 55.204 30.1733 53.1411 34.9417 48.8731Z" fill="white"/>
<path d="M32.5931 21.9844C32.3084 22.2689 31.8102 21.8421 32.0949 21.5576C38.1443 12.5236 47.0404 7.61537 54.869 10.0339C65.5444 13.3061 70.3839 28.8132 65.5444 44.676C60.7049 60.5388 44.1937 74.3388 28.8923 70.2842C27.8248 69.9996 26.8996 69.5728 26.0455 68.9326C25.832 68.7192 25.9032 68.3635 26.1879 68.2924C33.8741 66.6563 40.564 61.1079 45.9017 52.0028C49.0332 46.6678 51.2394 40.7637 52.0223 34.575C52.8763 28.173 52.4493 20.4194 46.3287 17.6452C42.2009 15.7957 37.2903 17.8586 32.5931 21.9844Z" fill="white"/>
<path d="M44.4783 35.5711L44.6206 35.6423L42.5567 36.567C38.5 38.4165 35.3686 41.902 33.9452 46.0989L33.8029 46.5257L33.3047 45.3876C31.739 41.6175 28.8922 38.4876 25.1203 36.7093L22.7005 35.5711C27.8958 33.8639 32.0237 29.7382 33.7317 24.5454C35.2974 29.8093 39.2829 33.9351 44.4783 35.5711Z" fill="white"/>
<path d="M230.838 0.724609C236.051 0.724844 240.275 4.94256 240.275 10.1426C240.275 15.3427 236.051 19.5613 230.838 19.5615C225.624 19.5615 221.399 15.3429 221.399 10.1426C221.399 4.94242 225.624 0.724609 230.838 0.724609Z" stroke="white" stroke-width="1.44898"/>
<path d="M227.25 14.3195V5.36987H231.977C232.489 5.36987 232.953 5.43454 233.369 5.56389C233.786 5.69114 234.142 5.87159 234.437 6.10524C234.732 6.33889 234.96 6.61948 235.12 6.947C235.28 7.27453 235.36 7.63856 235.36 8.0391C235.36 8.39166 235.295 8.71293 235.167 9.0029C235.041 9.29079 234.861 9.53904 234.626 9.74766C234.394 9.95419 234.113 10.1169 233.782 10.2358C233.451 10.3526 233.082 10.4163 232.677 10.4267C233.048 10.4517 233.378 10.5832 233.667 10.821C233.955 11.0567 234.205 11.3936 234.417 11.8317L235.62 14.3195H233.657L232.447 11.838C232.364 11.6648 232.274 11.5209 232.177 11.4061C232.08 11.2893 231.967 11.1965 231.839 11.1276C231.71 11.0567 231.56 11.0066 231.386 10.9774C231.213 10.9482 231.007 10.9336 230.768 10.9336H229.028V14.3195H227.25ZM231.761 9.52548C232.047 9.52548 232.303 9.49419 232.528 9.4316C232.753 9.36902 232.944 9.27827 233.099 9.15936C233.255 9.03837 233.373 8.89234 233.454 8.72127C233.537 8.54812 233.579 8.35202 233.579 8.13298C233.579 7.9181 233.538 7.72722 233.457 7.56033C233.378 7.39344 233.261 7.25367 233.106 7.14101C232.953 7.02628 232.762 6.9397 232.535 6.88129C232.31 6.82288 232.051 6.79367 231.758 6.79367H229.028V9.52548H231.761Z" fill="white"/>
</svg>
