<svg width="111" height="41" viewBox="0 0 111 41" fill="none" xmlns="http://www.w3.org/2000/svg">
<path d="M44.46 21.5V32H39.44V9.95H44.46V17.29C45.37 12.74 47.93 9.95 52.41 9.95H53.57V14.69H51.92C46.24 14.69 44.46 16.87 44.46 21.5ZM72.6944 9.95H77.8244L70.1544 32H62.8644L55.2744 9.95H60.5244L66.5744 28.86L72.6944 9.95ZM85.1447 2.4V7.52H79.9647V2.4H85.1447ZM85.0647 9.95V32H80.0447V9.95H85.0647ZM87.8553 20.97C87.8553 13.97 92.3053 9.35 98.8353 9.35C105.365 9.35 109.815 13.97 109.815 20.97C109.815 27.97 105.355 32.6 98.8353 32.6C92.3053 32.6 87.8553 27.97 87.8553 20.97ZM92.8953 20.97C92.8953 25.47 95.1353 28.16 98.8453 28.16C102.545 28.16 104.775 25.48 104.775 20.97C104.775 16.46 102.545 13.79 98.8453 13.79C95.1353 13.79 92.8953 16.47 92.8953 20.97Z" fill="white"/>
<path d="M17.62 24.7807C17.7636 24.6365 17.9789 24.8168 17.8712 24.9971C14.8207 29.6138 10.3347 32.1386 6.35106 30.9123C0.931902 29.2531 -1.47262 21.3904 0.931902 13.3473C3.33643 5.30414 11.6984 -1.69301 19.4144 0.362857C19.9528 0.507128 20.4552 0.759603 20.85 1.04814C20.9576 1.12028 20.9218 1.33669 20.7782 1.33669C16.9023 2.20231 13.5287 4.97953 10.8012 9.59621C9.22213 12.3013 8.10959 15.2949 7.71482 18.4328C7.28416 21.6789 7.49949 25.6103 10.5859 27.0169C12.7392 27.9908 15.2155 26.9448 17.62 24.7807Z" fill="white"/>
<path d="M16.4357 11.1471C16.2921 11.2914 16.0409 11.075 16.1845 10.9307C19.235 6.35011 23.7211 3.86143 27.6688 5.08774C33.0521 6.74685 35.4925 14.6096 33.0521 22.6527C30.6116 30.6959 22.2855 37.693 14.5695 35.6371C14.0312 35.4929 13.5646 35.2765 13.134 34.9519C13.0263 34.8437 13.0622 34.6633 13.2057 34.6272C17.0817 33.7977 20.4552 30.9844 23.1468 26.3677C24.7259 23.6626 25.8385 20.669 26.2332 17.5311C26.6639 14.285 26.4486 10.3536 23.3622 8.94699C21.2806 8.00923 18.8043 9.05519 16.4357 11.1471Z" fill="white"/>
<path d="M22.4291 18.0361L22.5008 18.0721L21.4601 18.541C19.4144 19.4788 17.8353 21.2461 17.1176 23.3741L17.0458 23.5905L16.7946 23.0134C16.005 21.1018 14.5695 19.5148 12.6674 18.6131L11.4472 18.0361C14.0671 17.1704 16.1486 15.0785 17.0099 12.4456C17.7995 15.1146 19.8092 17.2065 22.4291 18.0361Z" fill="white"/>
</svg>
