<svg width="940" height="192" viewBox="0 0 940 192" fill="none" xmlns="http://www.w3.org/2000/svg">
<g opacity="0.05">
<path d="M376.909 183.464V272.478H334.352V85.5492H376.909V148.791L376.654 148.961C378.519 139.183 381.289 130.367 384.962 122.511C388.692 114.655 393.355 107.986 398.95 102.504C404.545 97.022 411.101 92.8398 418.618 89.9574C426.191 87.0186 434.781 85.5492 444.389 85.5492H454.138V125.817H440.151C428.113 125.817 418.024 126.976 409.886 129.293C401.804 131.61 395.333 135.142 390.473 139.89C385.612 144.637 382.136 150.628 380.045 157.862C377.954 165.096 376.909 173.63 376.909 183.464ZM616.265 85.5492H659.754L594.817 272.478H532.931L468.587 85.5492H513.094L568.282 258.151H560.398L616.265 85.5492ZM721.134 85.5492V272.478H678.577V85.5492H721.134ZM721.812 21.5442V64.9489H677.899V21.5442H721.812ZM744.791 178.971C744.791 169.081 745.809 159.784 747.843 151.08C749.878 142.377 752.788 134.379 756.575 127.089C760.418 119.742 765.081 113.186 770.563 107.421C776.045 101.656 782.233 96.7959 789.129 92.8398C796.024 88.8271 803.568 85.7752 811.763 83.6841C819.958 81.5365 828.662 80.4627 837.874 80.4627C847.086 80.4627 855.79 81.5365 863.985 83.6841C872.18 85.7752 879.724 88.8271 886.62 92.8398C893.515 96.7959 899.703 101.656 905.185 107.421C910.667 113.186 915.302 119.742 919.088 127.089C922.931 134.379 925.87 142.377 927.905 151.08C929.939 159.784 930.957 169.081 930.957 178.971C930.957 188.861 929.939 198.187 927.905 206.947C925.87 215.65 922.931 223.647 919.088 230.938C915.302 238.229 910.639 244.756 905.1 250.521C899.618 256.286 893.43 261.174 886.535 265.187C879.696 269.2 872.18 272.251 863.985 274.343C855.846 276.49 847.143 277.564 837.874 277.564C828.662 277.564 819.958 276.49 811.763 274.343C803.568 272.251 796.024 269.2 789.129 265.187C782.29 261.174 776.101 256.286 770.563 250.521C765.081 244.756 760.418 238.229 756.575 230.938C752.788 223.647 749.878 215.65 747.843 206.947C745.809 198.187 744.791 188.861 744.791 178.971ZM787.518 178.971C787.518 188.522 788.648 197.085 790.909 204.658C793.226 212.174 796.56 218.561 800.912 223.817C805.264 229.016 810.548 233.001 816.765 235.77C823.038 238.539 830.103 239.924 837.959 239.924C845.815 239.924 852.851 238.568 859.068 235.855C865.285 233.086 870.541 229.073 874.836 223.817C879.188 218.561 882.494 212.174 884.754 204.658C887.072 197.085 888.23 188.522 888.23 178.971C888.23 169.42 887.072 160.886 884.754 153.369C882.494 145.796 879.188 139.409 874.836 134.21C870.541 128.954 865.285 124.969 859.068 122.257C852.851 119.487 845.815 118.103 837.959 118.103C830.103 118.103 823.038 119.487 816.765 122.257C810.548 124.969 805.264 128.954 800.912 134.21C796.56 139.409 793.226 145.796 790.909 153.369C788.648 160.886 787.518 169.42 787.518 178.971Z" fill="white"/>
<path d="M149.373 210.078C150.59 208.855 152.416 210.384 151.503 211.913C125.642 251.051 87.612 272.454 53.8409 262.058C7.90018 247.993 -12.4841 181.336 7.90018 113.151C28.2845 44.9657 99.1732 -14.3524 164.586 3.07611C169.149 4.29917 173.409 6.43951 176.755 8.88562C177.668 9.49715 177.364 11.3317 176.147 11.3317C143.288 18.6701 114.69 42.2139 91.5671 81.3516C78.1804 104.284 68.7489 129.662 65.4022 156.264C61.7513 183.782 63.5767 217.111 89.7417 229.036C107.996 237.291 128.989 228.424 149.373 210.078Z" fill="white"/>
<path d="M139.334 94.4988C138.117 95.7218 135.987 93.8872 137.204 92.6642C163.065 53.8322 201.095 32.7345 234.562 43.1304C280.198 57.1956 300.887 123.852 280.198 192.037C259.51 260.223 188.925 319.541 123.513 302.112C118.949 300.889 114.994 299.055 111.343 296.303C110.43 295.386 110.735 293.857 111.952 293.551C144.81 286.518 173.409 262.669 196.227 223.531C209.614 200.599 219.045 175.22 222.392 148.619C226.043 121.1 224.218 87.772 198.053 75.8472C180.406 67.8973 159.414 76.7645 139.334 94.4988Z" fill="white"/>
<path d="M190.142 152.898L190.751 153.204L181.928 157.179C164.586 165.129 151.199 180.111 145.114 198.151L144.506 199.986L142.376 195.094C135.683 178.888 123.513 165.435 107.388 157.79L97.0439 152.898C119.254 145.56 136.9 127.826 144.202 105.505C150.895 128.131 167.933 145.866 190.142 152.898Z" fill="white"/>
</g>
</svg>
