<svg width="413" height="379" viewBox="0 0 413 379" fill="none" xmlns="http://www.w3.org/2000/svg">
<path d="M206.394 135.846V0.507324" stroke="white" stroke-opacity="0.28" stroke-width="1.5" stroke-miterlimit="10"/>
<path d="M214.655 136.336L230.674 1.94141" stroke="white" stroke-opacity="0.28" stroke-width="1.5" stroke-miterlimit="10"/>
<path d="M222.8 137.788L254.612 6.21631" stroke="white" stroke-opacity="0.28" stroke-width="1.5" stroke-miterlimit="10"/>
<path d="M230.714 140.193L277.878 13.2827" stroke="white" stroke-opacity="0.28" stroke-width="1.5" stroke-miterlimit="10"/>
<path d="M238.29 143.511L300.147 23.0347" stroke="white" stroke-opacity="0.28" stroke-width="1.5" stroke-miterlimit="10"/>
<path d="M245.421 147.698L321.103 35.3423" stroke="white" stroke-opacity="0.28" stroke-width="1.5" stroke-miterlimit="10"/>
<path d="M252.004 152.698L340.459 50.0283" stroke="white" stroke-opacity="0.28" stroke-width="1.5" stroke-miterlimit="10"/>
<path d="M257.952 158.43L357.938 66.8833" stroke="white" stroke-opacity="0.28" stroke-width="1.5" stroke-miterlimit="10"/>
<path d="M263.18 164.825L373.304 85.6802" stroke="white" stroke-opacity="0.28" stroke-width="1.5" stroke-miterlimit="10"/>
<path d="M267.614 171.79L386.335 106.154" stroke="white" stroke-opacity="0.28" stroke-width="1.5" stroke-miterlimit="10"/>
<path d="M271.191 179.228L396.852 128.016" stroke="white" stroke-opacity="0.28" stroke-width="1.5" stroke-miterlimit="10"/>
<path d="M273.864 187.035L404.71 150.961" stroke="white" stroke-opacity="0.28" stroke-width="1.5" stroke-miterlimit="10"/>
<path d="M275.595 195.101L409.795 174.672" stroke="white" stroke-opacity="0.28" stroke-width="1.5" stroke-miterlimit="10"/>
<path d="M276.359 203.316L412.04 198.817" stroke="white" stroke-opacity="0.28" stroke-width="1.5" stroke-miterlimit="10"/>
<path d="M276.144 211.562L411.408 223.055" stroke="white" stroke-opacity="0.28" stroke-width="1.5" stroke-miterlimit="10"/>
<path d="M274.956 219.727L407.915 247.05" stroke="white" stroke-opacity="0.28" stroke-width="1.5" stroke-miterlimit="10"/>
<path d="M272.81 227.695L401.607 270.469" stroke="white" stroke-opacity="0.28" stroke-width="1.5" stroke-miterlimit="10"/>
<path d="M269.733 235.354L392.568 292.979" stroke="white" stroke-opacity="0.28" stroke-width="1.5" stroke-miterlimit="10"/>
<path d="M265.775 242.595L380.93 314.271" stroke="white" stroke-opacity="0.28" stroke-width="1.5" stroke-miterlimit="10"/>
<path d="M260.986 249.323L366.853 334.041" stroke="white" stroke-opacity="0.28" stroke-width="1.5" stroke-miterlimit="10"/>
<path d="M255.433 255.438L350.535 352.022" stroke="white" stroke-opacity="0.28" stroke-width="1.5" stroke-miterlimit="10"/>
<path d="M249.197 260.858L332.201 367.954" stroke="white" stroke-opacity="0.28" stroke-width="1.5" stroke-miterlimit="10"/>
<path d="M242.361 265.507L312.111 381.618" stroke="white" stroke-opacity="0.28" stroke-width="1.5" stroke-miterlimit="10"/>
<path d="M235.022 269.318L290.544 392.824" stroke="white" stroke-opacity="0.28" stroke-width="1.5" stroke-miterlimit="10"/>
<path d="M227.286 272.24L267.8 401.413" stroke="white" stroke-opacity="0.28" stroke-width="1.5" stroke-miterlimit="10"/>
<path d="M219.256 274.235L244.198 407.271" stroke="white" stroke-opacity="0.28" stroke-width="1.5" stroke-miterlimit="10"/>
<path d="M211.047 275.271L220.068 410.312" stroke="white" stroke-opacity="0.28" stroke-width="1.5" stroke-miterlimit="10"/>
<path d="M202.772 275.326L195.748 410.485" stroke="white" stroke-opacity="0.28" stroke-width="1.5" stroke-miterlimit="10"/>
<path d="M194.549 274.417L171.576 407.804" stroke="white" stroke-opacity="0.28" stroke-width="1.5" stroke-miterlimit="10"/>
<path d="M186.49 272.545L147.89 402.299" stroke="white" stroke-opacity="0.28" stroke-width="1.5" stroke-miterlimit="10"/>
<path d="M178.71 269.735L125.022 394.042" stroke="white" stroke-opacity="0.28" stroke-width="1.5" stroke-miterlimit="10"/>
<path d="M171.318 266.028L103.292 383.15" stroke="white" stroke-opacity="0.28" stroke-width="1.5" stroke-miterlimit="10"/>
<path d="M164.415 261.485L83.0022 369.787" stroke="white" stroke-opacity="0.28" stroke-width="1.5" stroke-miterlimit="10"/>
<path d="M158.098 256.149L64.4343 354.119" stroke="white" stroke-opacity="0.28" stroke-width="1.5" stroke-miterlimit="10"/>
<path d="M152.456 250.119L47.8506 336.384" stroke="white" stroke-opacity="0.28" stroke-width="1.5" stroke-miterlimit="10"/>
<path d="M147.568 243.459L33.4854 316.818" stroke="white" stroke-opacity="0.28" stroke-width="1.5" stroke-miterlimit="10"/>
<path d="M143.502 236.276L21.5325 295.703" stroke="white" stroke-opacity="0.28" stroke-width="1.5" stroke-miterlimit="10"/>
<path d="M140.315 228.667L12.1636 273.327" stroke="white" stroke-opacity="0.28" stroke-width="1.5" stroke-miterlimit="10"/>
<path d="M138.051 220.732L5.50781 250.008" stroke="white" stroke-opacity="0.28" stroke-width="1.5" stroke-miterlimit="10"/>
<path d="M136.741 212.584L1.65991 226.063" stroke="white" stroke-opacity="0.28" stroke-width="1.5" stroke-miterlimit="10"/>
<path d="M136.405 204.343L0.673096 201.839" stroke="white" stroke-opacity="0.28" stroke-width="1.5" stroke-miterlimit="10"/>
<path d="M137.045 196.121L2.55835 177.663" stroke="white" stroke-opacity="0.28" stroke-width="1.5" stroke-miterlimit="10"/>
<path d="M138.656 188.028L7.2937 153.881" stroke="white" stroke-opacity="0.28" stroke-width="1.5" stroke-miterlimit="10"/>
<path d="M141.216 180.183L14.8096 130.82" stroke="white" stroke-opacity="0.28" stroke-width="1.5" stroke-miterlimit="10"/>
<path d="M144.682 172.691L25.0039 108.806" stroke="white" stroke-opacity="0.28" stroke-width="1.5" stroke-miterlimit="10"/>
<path d="M149.011 165.663L37.7312 88.145" stroke="white" stroke-opacity="0.28" stroke-width="1.5" stroke-miterlimit="10"/>
<path d="M154.145 159.193L52.8174 69.1265" stroke="white" stroke-opacity="0.28" stroke-width="1.5" stroke-miterlimit="10"/>
<path d="M160.007 153.371L70.0464 52.0122" stroke="white" stroke-opacity="0.28" stroke-width="1.5" stroke-miterlimit="10"/>
<path d="M166.518 148.276L89.1821 37.0435" stroke="white" stroke-opacity="0.28" stroke-width="1.5" stroke-miterlimit="10"/>
<path d="M173.585 143.986L109.955 24.4326" stroke="white" stroke-opacity="0.28" stroke-width="1.5" stroke-miterlimit="10"/>
<path d="M181.111 140.56L132.076 14.355" stroke="white" stroke-opacity="0.28" stroke-width="1.5" stroke-miterlimit="10"/>
<path d="M188.991 138.039L155.234 6.94971" stroke="white" stroke-opacity="0.28" stroke-width="1.5" stroke-miterlimit="10"/>
<path d="M197.112 136.46L179.108 2.31445" stroke="white" stroke-opacity="0.28" stroke-width="1.5" stroke-miterlimit="10"/>
</svg>
